<mxfile host="app.diagrams.net" modified="2021-09-17T20:25:05.953Z" agent="5.0 (Windows NT 10.0; Win64; x64) AppleWebKit/537.36 (KHTML, like Gecko) Chrome/93.0.4577.82 Safari/537.36" etag="jjCla-a6wZWhl3NaR9Xl" version="15.2.7" type="github">
  <diagram id="YXr2eBg8ljijNtAlvqYT" name="Page-1">
    <mxGraphModel dx="1422" dy="737" grid="1" gridSize="10" guides="1" tooltips="1" connect="1" arrows="1" fold="1" page="1" pageScale="1" pageWidth="850" pageHeight="1100" math="1" shadow="0">
      <root>
        <mxCell id="0" />
        <mxCell id="1" parent="0" />
        <mxCell id="UqXHgI5hlwFw82xfGdeS-2" value="" style="rounded=0;whiteSpace=wrap;html=1;" vertex="1" parent="1">
          <mxGeometry x="310" y="180" width="130" height="40" as="geometry" />
        </mxCell>
        <mxCell id="UqXHgI5hlwFw82xfGdeS-3" value="&lt;font style=&quot;font-size: 9px&quot;&gt;$$\mbox{weight layer}$$&lt;/font&gt;" style="rounded=0;whiteSpace=wrap;html=1;" vertex="1" parent="1">
          <mxGeometry x="310" y="250" width="130" height="40" as="geometry" />
        </mxCell>
        <mxCell id="UqXHgI5hlwFw82xfGdeS-4" value="&lt;span style=&quot;font-family: &amp;#34;latin modern&amp;#34; ; font-size: 7px&quot;&gt;&lt;br&gt;&lt;/span&gt;" style="text;html=1;align=center;verticalAlign=middle;resizable=0;points=[];autosize=1;strokeColor=none;fillColor=none;" vertex="1" parent="1">
          <mxGeometry x="550" y="220" width="20" height="20" as="geometry" />
        </mxCell>
        <mxCell id="UqXHgI5hlwFw82xfGdeS-5" value="&lt;font style=&quot;font-size: 9px&quot;&gt;$$\mbox{weight layer}$$&lt;/font&gt;" style="text;html=1;align=center;verticalAlign=middle;resizable=0;points=[];autosize=1;strokeColor=none;fillColor=none;fontSize=10;" vertex="1" parent="1">
          <mxGeometry x="320" y="190" width="110" height="20" as="geometry" />
        </mxCell>
        <mxCell id="UqXHgI5hlwFw82xfGdeS-6" value="" style="endArrow=classic;html=1;entryX=0.5;entryY=0;entryDx=0;entryDy=0;" edge="1" parent="1" target="UqXHgI5hlwFw82xfGdeS-2">
          <mxGeometry width="50" height="50" relative="1" as="geometry">
            <mxPoint x="375" y="140" as="sourcePoint" />
            <mxPoint x="470" y="190" as="targetPoint" />
          </mxGeometry>
        </mxCell>
        <mxCell id="UqXHgI5hlwFw82xfGdeS-7" value="" style="endArrow=classic;html=1;" edge="1" parent="1">
          <mxGeometry width="50" height="50" relative="1" as="geometry">
            <mxPoint x="374.5" y="220" as="sourcePoint" />
            <mxPoint x="375" y="250" as="targetPoint" />
          </mxGeometry>
        </mxCell>
        <mxCell id="UqXHgI5hlwFw82xfGdeS-8" value="" style="endArrow=classic;html=1;" edge="1" parent="1" target="UqXHgI5hlwFw82xfGdeS-9">
          <mxGeometry width="50" height="50" relative="1" as="geometry">
            <mxPoint x="374.75" y="290" as="sourcePoint" />
            <mxPoint x="375" y="310" as="targetPoint" />
          </mxGeometry>
        </mxCell>
        <mxCell id="UqXHgI5hlwFw82xfGdeS-9" value="+" style="ellipse;whiteSpace=wrap;html=1;aspect=fixed;" vertex="1" parent="1">
          <mxGeometry x="370" y="310" width="10" height="10" as="geometry" />
        </mxCell>
        <mxCell id="UqXHgI5hlwFw82xfGdeS-10" value="" style="endArrow=classic;html=1;" edge="1" parent="1">
          <mxGeometry width="50" height="50" relative="1" as="geometry">
            <mxPoint x="374.79999999999995" y="320" as="sourcePoint" />
            <mxPoint x="375.04999999999995" y="340" as="targetPoint" />
          </mxGeometry>
        </mxCell>
        <mxCell id="UqXHgI5hlwFw82xfGdeS-11" value="" style="curved=1;endArrow=classic;html=1;entryX=1;entryY=0.5;entryDx=0;entryDy=0;" edge="1" parent="1" target="UqXHgI5hlwFw82xfGdeS-9">
          <mxGeometry width="50" height="50" relative="1" as="geometry">
            <mxPoint x="375" y="150" as="sourcePoint" />
            <mxPoint x="570" y="250" as="targetPoint" />
            <Array as="points">
              <mxPoint x="470" y="150" />
              <mxPoint x="490" y="250" />
              <mxPoint x="460" y="310" />
            </Array>
          </mxGeometry>
        </mxCell>
        <mxCell id="UqXHgI5hlwFw82xfGdeS-12" value="&lt;font style=&quot;font-size: 11px&quot;&gt;$$\mbox{X}$$&lt;/font&gt;" style="text;html=1;align=center;verticalAlign=middle;resizable=0;points=[];autosize=1;strokeColor=none;fillColor=none;" vertex="1" parent="1">
          <mxGeometry x="350" y="120" width="80" height="20" as="geometry" />
        </mxCell>
        <mxCell id="UqXHgI5hlwFw82xfGdeS-13" value="&lt;font style=&quot;font-size: 8px&quot;&gt;$$\mbox{identity}$$&lt;/font&gt;" style="text;html=1;align=center;verticalAlign=middle;resizable=0;points=[];autosize=1;strokeColor=none;fillColor=none;" vertex="1" parent="1">
          <mxGeometry x="475" y="230" width="90" height="20" as="geometry" />
        </mxCell>
        <mxCell id="UqXHgI5hlwFw82xfGdeS-14" value="&lt;font style=&quot;font-size: 12px&quot;&gt;$$\mbox{F(x)}$$&lt;/font&gt;" style="text;html=1;align=center;verticalAlign=middle;resizable=0;points=[];autosize=1;strokeColor=none;fillColor=none;" vertex="1" parent="1">
          <mxGeometry x="220" y="220" width="100" height="20" as="geometry" />
        </mxCell>
        <mxCell id="UqXHgI5hlwFw82xfGdeS-15" value="&lt;font style=&quot;font-size: 11px&quot;&gt;$$\mbox{F(x) + x}$$&lt;/font&gt;" style="text;html=1;align=center;verticalAlign=middle;resizable=0;points=[];autosize=1;strokeColor=none;fillColor=none;" vertex="1" parent="1">
          <mxGeometry x="260" y="305" width="110" height="20" as="geometry" />
        </mxCell>
        <mxCell id="UqXHgI5hlwFw82xfGdeS-16" value="&lt;span style=&quot;font-size: 7px&quot;&gt;$$\mbox{ReLU}$$&lt;/span&gt;" style="text;html=1;align=center;verticalAlign=middle;resizable=0;points=[];autosize=1;strokeColor=none;fillColor=none;" vertex="1" parent="1">
          <mxGeometry x="365" y="220" width="70" height="20" as="geometry" />
        </mxCell>
        <mxCell id="UqXHgI5hlwFw82xfGdeS-17" value="&lt;span style=&quot;font-size: 7px&quot;&gt;$$\mbox{ReLU}$$&lt;/span&gt;" style="text;html=1;align=center;verticalAlign=middle;resizable=0;points=[];autosize=1;strokeColor=none;fillColor=none;" vertex="1" parent="1">
          <mxGeometry x="365" y="325" width="70" height="20" as="geometry" />
        </mxCell>
        <mxCell id="UqXHgI5hlwFw82xfGdeS-18" value="&lt;font style=&quot;font-size: 11px&quot;&gt;$$\mbox{X}$$&lt;/font&gt;" style="text;html=1;align=center;verticalAlign=middle;resizable=0;points=[];autosize=1;strokeColor=none;fillColor=none;" vertex="1" parent="1">
          <mxGeometry x="480" y="210" width="80" height="20" as="geometry" />
        </mxCell>
      </root>
    </mxGraphModel>
  </diagram>
</mxfile>
